# xmcd
#
# Track frame offsets:
#	150
#	13610
#	25938
#	36816
#	51031
#	64082
#	75201
#	86187
#	98482
#	109478
#	119915
#	133808
#	144002
#	154267
#	165400
#	178224
#	189116
#	202294
#	215517
#	226544
#
# Disc length: 3185 seconds
#
# Revision: 0
# Processed by: cddbd v1.5.1PL2 Copyright (c) Steve Scherf et al.
# Submitted via: EasyCDDAExtractor 4.6.9.1
#
DISCID=0c0c6f14
DTITLE=George Jones and Tammy Wynette - The President and The First Lady
DYEAR=1992
DGENRE=Country
TTITLE0=We're Gonna Hold On
TTITLE1=Two Story House
TTITLE2=Take Me
TTITLE3=The Ceremony
TTITLE4=Old Fashioned Singing
TTITLE5=(We're Not) The Jet Set
TTITLE6=We Loved It Away
TTITLE7=God's Gonna Get Ya (For That)
TTITLE8=Someone I Used To Know
TTITLE9=Livin' On Easy Street
TTITLE10=Golden Ring
TTITLE11=After Closing Time
TTITLE12=Something To Brag About
TTITLE13=We'll Talk About It Later
TTITLE14=Roll In My Sweet Baby's Arms
TTITLE15=Near You
TTITLE16=Southern California
TTITLE17=Let's Build A World Together
TTITLE18=After The Fire Is Gone
TTITLE19=If We Don't Make It
EXTD=
EXTT0=
EXTT1=
EXTT2=
EXTT3=
EXTT4=
EXTT5=
EXTT6=
EXTT7=
EXTT8=
EXTT9=
EXTT10=
EXTT11=
EXTT12=
EXTT13=
EXTT14=
EXTT15=
EXTT16=
EXTT17=
EXTT18=
EXTT19=
PLAYORDER=
